# xmcd
#
# Track frame offsets: 
#        150
#        13292
#        39751
#        60576
#        83216
#        98401
#        122027
#        139181
#        157181
#        172930
#
# Disc length: 2589 seconds
#
# Revision: 0
# Processed by: cddbd v1.5.2PL0 Copyright (c) Steve Scherf et al.
# Submitted via: ExactAudioCopy v1.0b1
#
DISCID=770a1b0a
DTITLE=Various Artist - C89.5 Volume 4 - Disc 2 - Richard J Dalton
DYEAR=2008
DGENRE=Dance
TTITLE0=Alex Young - Cold (Radio Edit)
TTITLE1=Morgan Page feat. Lissie - The Longest Road (Deadmau5 Vocal Mi
TTITLE1=x)
TTITLE2=Saving Jane - SuperGirl (Jason Nevins Extended Mix)
TTITLE3=Sunfreakz - Drive Out (Club Mix)
TTITLE4=Ercola feat. Daniella - Every Word
TTITLE5=Kaskade and Deadmau5 - Move for Me (Extended Vocal)
TTITLE6=Jacinta - Electric Universe (Radio Edit)
TTITLE7=Kim Leoni - Medicine (Extended)
TTITLE8=T2 feat. Jodie Aysha - Heartbroken (Wawa Edit)
TTITLE9=Loveshy - Gotta Love For You (Club Mix)
EXTD=
EXTT0=
EXTT1=
EXTT2=
EXTT3=
EXTT4=
EXTT5=
EXTT6=
EXTT7=
EXTT8=
EXTT9=
PLAYORDER=
